<?xml version="1.0" standalone="no"?>
<!DOCTYPE svg PUBLIC "-//W3C//DTD SVG 20010904//EN" "http://www.w3.org/TR/2001/REC-SVG-20010904/DTD/svg10.dtd">
<svg version="1.0" xmlns="http://www.w3.org/2000/svg" width="64.000000pt" height="64.000000pt" viewBox="0 0 64.000000 64.000000" preserveAspectRatio="xMidYMid meet">

        <g transform="translate(0.000000,64.000000) scale(0.100000,-0.100000)" stroke="none">
                <path d="M186 569 c-35 -28 -33 -73 6 -102 24 -18 30 -18 57 -7 52 21 55 96 6
118 -34 16 -38 15 -69 -9z" />
                <path d="M382 578 c-43 -21 -42 -96 3 -116 43 -20 95 14 95 63 0 19 -44 65
-62 64 -7 0 -23 -5 -36 -11z" />
                <path d="M297 424 c-4 -4 -7 -18 -7 -31 0 -22 -3 -23 -80 -23 -78 0 -80 0 -80
-25 l0 -24 136 -3 135 -3 -30 -42 c-17 -24 -37 -43 -45 -43 -8 0 -26 14 -40
31 -20 24 -32 30 -57 27 l-31 -3 43 -48 42 -49 -34 -26 c-19 -15 -47 -39 -64
-54 -28 -25 -29 -28 -13 -44 16 -16 20 -15 73 26 30 24 58 47 61 51 9 15 20
10 84 -41 34 -28 66 -50 70 -50 4 0 14 7 21 16 14 18 13 19 -76 90 l-39 32 37
41 c20 22 39 52 43 66 5 19 13 25 35 25 24 0 29 4 29 25 0 25 -1 25 -79 25
-79 0 -80 0 -83 28 -3 26 -34 43 -51 26z" />
        </g>
</svg>